<svg viewBox="0 0 481.07 60.4" xmlns="http://www.w3.org/2000/svg"><g fill="#2e1039"><path d="m39.51 1.33-8.47 27.08-12.03-25.46-14.25 1.13-4.76 53.52 14.67-1.16 1.92-28.01 13.29 26.8 6.25-.49 9.41-28.59 5.72 27.39 14.75-1.17-12.1-52.18z"/><path d="m60.49 25.36h52.98v14.76h-52.98z" transform="matrix(.02722377 -.99962936 .99962936 .02722377 51.88 118.8)"/><path d="m136.12 23.51-4.14-1.11c-2.13-.55-3.54-1.21-4.2-1.95-.42-.5-.58-1.01-.61-1.88-.03-.83.29-1.53 1.03-2.31 1.22-1.22 2.96-1.45 3.89-1.48 1.79-.06 4.61.2 8.49 3.07l.68.5 5.66-11.98-.62-.3c-5.17-2.5-11.29-3.9-16.38-3.75-5.57.17-10.38 2.13-13.55 5.5-2.17 2.31-4.72 6.46-4.52 13.09.08 2.66.53 6.54 3.41 9.49 2.19 2.29 5.35 3.41 7.87 4.13l4.28 1.18c2.86.76 4.59 1.23 5.72 2.17 1.1.88 1.29 1.96 1.31 2.53.03 1.05-.34 2.06-1.05 2.82-.51.6-1.8 1.61-4.62 1.7-5.41.17-9.85-3.24-11.51-4.72l-.68-.6-6.05 12.37.52.33c3.64 2.34 6.87 3.53 8.09 3.93 4.22 1.4 7.5 1.51 10.42 1.42 5.07-.16 10.89-.99 15.55-5.95 3.31-3.52 4.83-7.98 4.65-13.64-.13-4.23-1.24-7-3.81-9.56-2.83-2.89-6.26-4.01-9.83-5z"/><path d="m160.48 13.15 10.98.19-.69 40.22 14.76.25.69-40.22 10.98.19.22-12.75-36.72-.63z"/><path d="m214.26 59.98 30.66-1.56-.65-12.74-15.91.81-.38-7.5 15.06-.77-.65-12.74-15.06.77-.37-7.19 15.91-.81-.65-12.74-30.66 1.56z"/><path d="m296.97 29.25c2.83-2.56 4.53-6.61 4.68-11.1s-1.42-9.18-4.2-12.23c-3.97-4.41-9.29-5.09-12.94-5.21l-21.57-.72-1.76 52.95 14.76.49.6-18.15 11.17 18.54 18.4.61-15.65-21.91c2.47-.57 4.8-1.74 6.51-3.28zm-19.66-17.02 1.86.06c2.62.09 4.76.82 5.89 2.02.93.93 1.48 2.42 1.43 3.88s-.7 2.92-1.61 3.78c-1.52 1.35-4.22 1.76-6.08 1.7l-1.86-.06.38-11.38z"/><path d="m360.86 3.44-22.01 1.13 2.72 52.91 14.74-.76-.88-17.07 7.73-.4c3.97-.2 9.05-1 13.07-5.36 3.99-4.33 4.3-9.29 4.08-13.56s-1.05-8.74-5.67-12.76c-4.73-4.1-10.13-4.32-13.78-4.13zm-6.64 12.57 3.87-.2c2.46-.13 4.19.32 5.31 1.38 1.24 1.12 1.49 2.69 1.56 4.08s-.01 3.1-1.26 4.28c-1 1-2.76 1.59-5.1 1.71l-3.79.2-.59-11.44z"/><path d="m374.59 19.84h52.98v14.76h-52.98z" transform="matrix(.07515277 -.99717203 .99717203 .07515277 343.77 425.12)"/><path d="m472.73 12.95c-5.22-4.99-12.81-7.85-20.82-7.85s-15.6 2.86-20.82 7.85c-5.3 5-8.34 12.23-8.34 19.84s3.04 14.69 8.34 19.76c5.22 4.99 12.81 7.85 20.82 7.85s15.6-2.86 20.82-7.85c5.3-5.07 8.34-12.28 8.34-19.76s-3.04-14.84-8.34-19.84zm-10.94 29.25c-2.54 2.53-5.86 3.82-9.88 3.82s-7.33-1.35-9.97-3.91c-1.77-1.7-3.89-4.66-3.89-9.09 0-3.72 1.42-7.23 3.89-9.64 2.48-2.48 6.1-3.91 9.95-3.91 3.6 0 7.3 1.46 9.89 3.91 2.52 2.44 3.97 5.87 3.97 9.41s-1.45 6.89-3.97 9.41z"/></g></svg>