<svg width="100%" className="h-auto" viewBox="0 -10 623 632" fill="none" xmlns="http://www.w3.org/2000/svg">
      <path d="M487.431 256.083C479.342 245.7 463.469 248.979 460.711 249.69C432.597 256.99 415.376 302.409 399.182 285.632C388.656 272.845 415.514 236.313 430.759 218.539C439.66 208.155 446.953 205.752 446.141 192.98C445.452 182.158 437.239 169.024 416.188 171.412C395.137 173.815 389.223 183.05 382.191 191.378C365.996 210.543 373.105 218.297 359.515 233.714C344.96 250.219 333.086 237.235 336.488 218.357C339.659 200.749 345.558 183.685 351.349 166.817C352.866 162.389 354.414 157.779 353.877 153.123C352.345 139.868 339.996 130.074 326.437 131.963C318.194 133.112 310.84 137.888 305.064 143.798C295.504 153.562 289.651 166.454 286.771 179.725C284.411 190.592 283.952 201.747 284.289 212.826C284.595 222.952 289.666 234.454 277.93 239.986C266.072 245.579 252.283 241.604 239.949 239.079C221.824 235.361 203.807 229.557 186.08 224.343C180.657 222.741 174.988 221.033 169.426 222.076C159.207 223.98 152.696 235.346 154.059 245.518C155.423 255.69 162.991 264.23 171.954 269.444C182.112 275.43 194.384 277.289 205.186 281.929C217.581 287.249 233.53 290.771 244.546 298.782C246.583 300.263 248.33 302.454 248.361 304.963C248.407 307.956 244.515 313.473 242.11 315.302C240.24 316.722 238.157 318.007 235.828 318.415C229.7 319.504 222.33 314.727 217.489 311.448C212.188 307.865 207.515 303.422 203.424 298.555C195.886 289.577 186.249 283.199 175.616 278.256C167.971 274.704 160.08 275.112 153.048 279.737C131.032 294.232 163.482 328.678 170.913 342.84C171.219 343.415 171.51 343.989 171.801 344.578C180.611 362.247 183.614 382.213 193.006 399.625C203.853 419.758 224.276 431.97 244.745 441.099C271.327 452.949 300.652 460.506 329.639 457.272C378.835 451.785 415.974 411.022 423.68 363.97C426.683 345.621 440.503 327.182 440.503 327.182C456.697 310.405 469.306 298.751 484.536 284.03C493.115 275.747 495.567 266.482 487.462 256.098L487.431 256.083ZM370.194 353.572C363.591 363.381 352.927 371.89 339.246 371.104C325.962 370.349 313.537 361.114 304.068 351.244C298.997 345.954 294.293 340.21 291.658 333.847C289.82 329.419 289.483 325.277 290.034 321.544C292.424 305.235 333.745 301.895 353.984 310.435C359.454 312.747 364.816 315.71 369.045 319.806C380.122 330.567 376.614 344.049 370.194 353.572Z" fill="#6528A5"/>
      <path d="M319.895 319.383C312.909 324.718 310.075 335.797 315.774 343.052C321.933 350.881 334.267 348.72 341.008 342.855C343.628 340.573 345.803 337.58 346.171 334.165C346.508 331.066 345.313 327.953 343.383 325.489C338.48 319.216 327.142 313.881 319.895 319.413V319.383Z" fill="#6528A5"/>
      <g id="misterPioText">
        <path d="M67.0452 299.222L35.8361 283.866L69.083 274.359L70.4925 257.128L6.54215 241.122L5.08671 258.866L38.7318 266.559L3.58528 277.321L2.95706 284.863L35.8361 301.655L1.45562 303.227L0 321.062L65.6204 316.649L67.0452 299.222Z" fill="#6528A5"/>
        <path d="M69.3943 338.298L5.31738 349.375L8.44339 366.973L72.5203 355.895L69.3943 338.298Z" fill="#6528A5"/>
        <path d="M61.3786 421.271C63.5848 416.872 63.4928 412.504 63.2017 408.03L62.8187 402.846C62.4816 398.856 63.1711 397.632 63.3855 397.254C63.7992 396.574 64.3202 396.181 65.3314 395.803C66.2813 395.44 67.2159 395.516 68.4416 396.06C70.3567 396.967 71.3373 398.871 71.7357 399.929C72.517 401.954 73.3749 405.295 71.613 410.887L71.3066 411.839L87.4705 413.532L87.5623 412.716C88.3743 405.809 87.5317 398.236 85.2795 392.478C82.8281 386.175 78.6148 381.459 73.421 379.177C69.8665 377.62 64.0291 376.35 56.4146 379.237C53.3657 380.386 49.0451 382.442 46.7929 386.915C45.0309 390.331 45.0002 394.397 45.1841 397.556L45.5366 402.891C45.8124 406.489 45.9809 408.65 45.3374 410.343C44.7552 411.96 43.5754 412.61 42.9166 412.852C41.7062 413.305 40.3734 413.29 39.209 412.776C38.305 412.429 36.6044 411.356 35.3634 408.151C32.9733 402.015 35.1334 395.576 36.1752 393.082L36.5889 392.085L19.8277 390.105L19.6592 390.815C18.4182 395.909 18.3415 400.08 18.3721 401.637C18.4487 407.018 19.6592 410.811 20.9461 414.121C23.183 419.865 26.4924 426.183 34.1376 429.538C36.8035 430.702 39.546 431.292 42.4417 431.292C45.3374 431.292 48.5395 430.672 51.8336 429.417C56.675 427.588 59.4481 425.216 61.3786 421.256V421.271Z" fill="#6528A5"/>
        <path d="M107.525 466.1L120.579 457.606L95.7127 420.484L82.6591 428.979L90.1051 440.088L48.876 466.961L58.85 481.864L100.095 454.991L107.525 466.1Z" fill="#6528A5"/>
        <path d="M125.36 518.865L136.36 507.907L123.199 495.029L129.466 488.802L143.362 502.405L154.378 491.447L127.612 465.269L81.8018 510.854L108.568 537.032L119.568 526.074L105.672 512.471L112.199 505.987L125.36 518.865Z" fill="#6528A5"/>
        <path d="M187.012 513.272L164.367 499.684L130.554 554.52L146.028 563.815L157.641 544.982L158.407 571.251L177.697 582.829L174.173 550.393C177.16 551.255 180.363 551.421 183.136 550.817C187.701 549.789 191.961 546.539 194.841 541.884C197.783 537.108 198.855 531.349 197.721 526.482C196.143 519.469 190.858 515.585 187.027 513.287L187.012 513.272ZM178.601 532.891C177.697 534.342 176.073 535.566 174.587 535.929C172.135 536.443 168.994 535.264 167.049 534.1L165.087 532.921L172.365 521.117L174.326 522.296C177.084 523.943 178.938 525.999 179.413 527.948C179.857 529.49 179.535 531.394 178.601 532.906V532.891Z" fill="#6528A5"/>
        <path d="M273.653 544.287L247.01 539.571L235.488 602.75L253.307 605.908L257.03 585.519L266.406 587.182C271.217 588.028 277.514 588.497 283.52 584.446C289.495 580.425 291.257 574.667 292.192 569.573C293.08 564.722 293.387 558.963 288.974 552.962C284.47 546.826 278.066 545.073 273.653 544.287ZM262.193 557.255L266.897 558.086C269.869 558.615 271.83 559.613 272.872 561.185C274.051 562.862 273.898 564.782 273.592 566.445C273.27 568.183 272.703 570.102 270.895 571.16C269.425 572.067 267.142 572.279 264.307 571.78L259.696 570.964L262.193 557.255Z" fill="#6528A5"/>
        <path d="M326.451 546.997L308.345 547.331L309.56 611.511L327.666 611.177L326.451 546.997Z" fill="#6528A5"/>
        <path d="M401.11 541.037C393.357 536.79 383.46 535.762 373.93 538.211C364.416 540.659 356.28 546.343 351.638 553.794C346.888 561.276 345.525 570.692 347.884 579.609C350.213 588.391 356.051 595.888 363.926 600.226C368.905 602.961 374.773 604.352 380.871 604.352C384.257 604.352 387.704 603.914 391.105 603.037C400.635 600.588 408.755 594.905 413.413 587.454C418.132 579.882 419.511 570.511 417.182 561.744C414.822 552.827 408.97 545.284 401.11 541.037ZM382.816 554.489C385.804 554.489 388.807 555.215 391.366 556.59C395.119 558.691 397.908 562.258 399.011 566.415C400.083 570.465 399.425 574.939 397.203 578.672C394.981 582.421 391.427 584.96 386.631 586.184C382.02 587.378 377.5 586.849 373.563 584.658C370.927 583.207 367.48 580.38 366.117 575.181C364.967 570.813 365.55 566.248 367.756 562.666C369.931 558.993 373.808 556.212 378.389 555.033C379.814 554.671 381.315 554.489 382.816 554.489Z" fill="#6528A5"/>
        <path d="M489.372 535.823C491.747 534.04 494.444 531.501 495.363 527.42C496.298 523.172 494.582 519.938 493.141 518.079C490.904 515.162 487.227 513.076 483.152 513.348C479.643 513.56 476.732 515.434 474.756 516.93L467.632 522.266L492.176 554.157L497.125 550.454L487.151 537.501L489.388 535.838L489.372 535.823ZM483.688 532.997L476.028 523.052L478.203 521.419C483.826 517.202 486.982 519.817 488.346 521.585C490.629 524.548 490.169 528.13 485.91 531.319L483.673 532.982L483.688 532.997Z" fill="#6528A5"/>
        <path d="M524.09 520.301L515.066 511.383L526.189 500.44L522.068 496.359L510.945 507.302L503.683 500.108L515.143 488.832L511.021 484.751L495.164 500.35L523.83 528.704L539.687 513.106L535.566 509.025L524.09 520.301Z" fill="#6528A5"/>
        <path d="M543.519 463.319C542.109 462.276 538.049 459.707 532.993 461.43C530.005 462.443 527.615 464.574 524.658 468.458L520.292 474.171L552.727 498.264L556.465 493.367L543.197 483.497L543.856 482.635L564.126 483.346L568.63 477.451L547.15 477.134C549.433 472.146 548.192 466.78 543.534 463.319H543.519ZM540.071 478.812L538.892 480.338L528.581 472.675L529.868 470.997C531.691 468.594 535.399 464.664 539.964 468.05C545.112 471.889 541.083 477.451 540.056 478.796L540.071 478.812Z" fill="#6528A5"/>
        <path d="M579.936 429.009L556.878 416.933L553.967 422.344L575.585 433.664C577.515 434.677 579.859 435.962 581.177 438.017C582.433 440.043 583.031 443.413 581.346 446.542C579.66 449.671 576.489 451.076 574.099 451.182C571.647 451.258 569.257 450.079 567.311 449.051L545.693 437.73L542.782 443.141L565.841 455.218C568.69 456.714 572.444 457.923 576.918 456.805C579.967 456.019 583.797 454.008 586.386 449.187C588.975 444.365 588.516 440.103 587.474 437.171C585.927 432.893 582.786 430.505 579.951 429.009H579.936Z" fill="#6528A5"/>
        <path d="M570.882 379.343L594.109 398.825L563.681 400.518L561.552 406.776L608.25 403.496L573.012 373.085L570.882 379.343Z" fill="#6528A5"/>
        <path d="M576.458 356.179L575.2 362.173L614.943 370.293L616.201 364.299L576.458 356.179Z" fill="#6528A5"/>
        <path d="M622.009 316.209L622.53 309.619L578.19 325.233L619.45 348.418L619.971 341.828L610.549 336.705L611.897 319.64L621.994 316.209H622.009ZM604.926 333.742L591.704 326.517L605.891 321.651L604.926 333.742Z" fill="#6528A5"/>
        <path d="M578.067 260.301L578.711 266.392L606.672 263.521L579.033 295.578L622.131 291.15L621.487 285.059L593.281 287.961L620.92 255.903L578.067 260.301Z" fill="#6528A5"/>
        <path d="M572.552 200.538C570.898 201.128 566.5 203.093 565.213 208.217C564.447 211.239 564.968 214.383 566.654 218.948L569.136 225.659L607.285 211.95L605.156 206.191L589.543 211.799L589.176 210.786L600.804 194.402L598.246 187.464L586.28 205.058C583.277 200.448 578.053 198.558 572.552 200.523V200.538ZM583.844 211.814L584.518 213.612L572.399 217.965L571.664 215.985C570.622 213.159 569.289 207.96 574.667 206.025C580.734 203.848 583.277 210.212 583.859 211.799L583.844 211.814Z" fill="#6528A5"/>
        <path d="M544.959 173.801C551.026 184.215 563.405 187.374 573.747 181.494C584.089 175.63 587.536 163.478 581.469 153.064C575.402 142.65 563.022 139.491 552.68 145.371C542.339 151.25 538.891 163.387 544.959 173.801ZM576.505 155.89C580.841 163.342 578.451 171.761 570.652 176.189C562.838 180.618 554.259 178.426 549.923 170.99C545.587 163.553 547.977 155.12 555.775 150.691C563.589 146.263 572.169 148.454 576.505 155.89Z" fill="#6528A5"/>
        <path d="M518.087 125.313L513.537 128.941L529.149 148L533.7 144.373L527.832 137.223L554.873 115.67L550.966 110.909L523.94 132.462L518.087 125.313Z" fill="#6528A5"/>
        <path d="M530.005 88.2929L501.181 116.501L505.551 120.847L534.375 92.6387L530.005 88.2929Z" fill="#6528A5"/>
        <path d="M475.829 86.9838C475.431 88.8126 475.446 90.6113 475.691 92.032C475.998 93.6644 476.917 96.4757 480.333 99.1812C486.263 103.882 492.866 102.491 496.298 98.2894C500.113 93.619 498.029 88.4045 496.298 85.2607L494.291 81.5879C492.897 79.094 491.487 75.8293 494.092 72.6402C496.65 69.5115 500.634 69.2092 503.576 71.5368C505.475 73.0482 506.195 74.8469 506.18 76.6908C506.134 78.2779 505.521 80.1823 504.265 81.724L509.888 84.4899C511.451 82.1774 512.37 79.5172 512.186 76.2979C512.018 73.2447 510.945 70.1463 507.299 67.2594C501.369 62.5588 493.785 63.239 488.944 69.1789C486.048 72.7308 484.991 77.2954 488.913 84.2632L491.058 88.0418C493.142 91.6995 492.146 93.6039 491.38 94.541C489.741 96.5513 486.814 97.0803 483.873 94.7526C482.494 93.6644 481.712 92.5006 481.375 90.9135C481.161 89.7346 481.268 88.7522 481.559 87.8151L475.844 86.9687L475.829 86.9838Z" fill="#6528A5"/>
        <path d="M464.599 62.9072L462.101 59.5367C460.37 57.2544 458.532 54.2013 460.677 50.6947C462.776 47.2486 466.698 46.4173 469.931 48.3369C472.014 49.5762 472.979 51.2691 473.209 53.0828C473.378 54.6547 473.041 56.6196 471.999 58.3275L477.959 60.3226C479.2 57.8287 479.736 55.0779 479.123 51.9039C478.541 48.8961 477.055 45.979 473.041 43.5909C466.529 39.7216 459.098 41.4144 455.115 47.9439C452.725 51.8585 452.311 56.4987 457.153 62.8921L459.803 66.3533C462.377 69.7087 461.642 71.7189 461.014 72.7467C459.665 74.9534 456.831 75.8754 453.598 73.9559C452.081 73.0641 451.162 72.0212 450.595 70.4947C450.227 69.3611 450.197 68.3635 450.35 67.4113L444.574 67.3357C444.421 69.2099 444.697 70.9783 445.126 72.3538C445.662 73.9257 446.949 76.5858 450.702 78.8227C457.214 82.692 463.572 80.44 466.391 75.815C469.532 70.6609 466.744 65.7941 464.599 62.9072Z" fill="#6528A5"/>
        <path d="M421.04 25.574L435.932 31.8616L430.906 43.4544L416.459 37.3633L414.16 42.6685L428.608 48.7596L424.548 58.0852L409.671 51.7976L407.373 57.1028L427.965 65.7936L443.929 28.9748L423.338 20.2839L421.04 25.574Z" fill="#6528A5"/>
        <path d="M386.982 50.6638L393.968 52.538L404.616 13.8903L398.626 12.2882L394.275 28.0979L393.217 27.8108L386.354 8.99325L379.137 7.05859L386.798 26.8434C381.252 26.6016 376.671 29.7303 375.138 35.2924C374.679 36.9701 373.775 41.6405 377.268 45.6307C379.336 47.9886 382.232 49.3791 386.982 50.6638ZM380.914 36.7888C382.6 30.6523 389.341 32.2695 390.996 32.7079L392.88 33.2066L389.494 45.4796L387.441 44.9355C384.5 44.1495 379.428 42.23 380.93 36.7736L380.914 36.7888Z" fill="#6528A5"/>
        <path d="M356.511 3.33001L350.3 42.9119L356.432 43.8483L362.643 4.26649L356.511 3.33001Z" fill="#6528A5"/>
        <path d="M313.687 5.75861L329.866 6.46899L329.299 19.0593L313.611 18.3641L313.35 24.1378L329.039 24.818L328.579 34.9598L312.4 34.2494L312.14 40.008L334.524 40.9904L336.332 0.98244L313.948 0L313.687 5.75861Z" fill="#6528A5"/>
        <path d="M252.448 10.9128C260.951 9.37108 268.259 14.7065 269.807 23.0346C271.415 31.7103 266.727 39.1012 258.055 40.6732C255.788 41.0812 251.575 41.4289 246.411 38.27L247.729 45.3586C251.605 46.9154 255.267 46.9305 258.913 46.2655C264.429 45.268 268.964 43.1066 272.381 38.5118C275.154 34.7785 277.268 29.2013 275.92 21.9312C274.878 16.3842 272.212 11.6685 266.742 8.20727C264 6.43888 258.852 4.02056 251.605 5.33552C248.847 5.8343 244.772 7.17949 241.202 10.278L242.535 17.4271C244.42 14.8879 247.668 11.7894 252.463 10.9279L252.448 10.9128Z" fill="#6528A5"/>
        <path d="M215.046 15.6444L221.451 32.9504L205.088 38.8451L198.683 21.5239L192.861 23.6248L206.773 61.2447L212.595 59.1438L207.095 44.2561L223.442 38.3765L228.958 53.2643L234.78 51.1634L220.868 13.5435L215.046 15.6444Z" fill="#6528A5"/>
        <path d="M173.978 32.6358L168.46 35.4348L187.025 71.0557L192.543 68.2567L173.978 32.6358Z" fill="#6528A5"/>
        <path d="M137.141 59.8982C144.296 55.1221 153.151 57.1021 157.962 64.1001C162.988 71.4004 161.701 80.0156 154.393 84.9127C152.477 86.1974 148.77 88.1774 142.749 87.331L146.854 93.3012C151.037 93.1803 154.393 91.7444 157.457 89.6889C162.084 86.5904 165.362 82.7967 166.619 77.2497C167.63 72.7304 167.293 66.7904 163.095 60.6691C159.878 55.9987 155.526 52.7491 149.107 51.7515C145.874 51.2225 140.175 51.0563 134.077 55.1372C131.763 56.694 128.576 59.5506 126.569 63.7827L130.706 69.7982C131.396 66.73 133.111 62.6037 137.141 59.9134V59.8982Z" fill="#6528A5"/>
        <path d="M115.569 124.135L121.498 118.618L121.835 96.3699L132.943 107.993L137.463 103.806L109.624 74.6504L105.105 78.8522L116.626 90.9136L116.565 92.6064L93.6751 89.4626L87.6387 95.07L116.304 98.5464L115.569 124.135Z" fill="#6528A5"/>
        <path d="M76.8361 116.623L86.8715 124.437L77.1425 136.605L81.7237 140.172L91.4525 128.004L99.5268 134.292L89.5067 146.837L94.0877 150.404L107.953 133.053L76.0854 108.25L62.2197 125.601L66.8007 129.168L76.8361 116.623Z" fill="#6528A5"/>
        <path d="M68.6256 192.619L71.6284 187.268L46.9922 173.877L88.2367 163.115L50.2862 142.484L47.2985 147.85L72.1342 161.347L30.8896 172.108L68.6256 192.619Z" fill="#6528A5"/>
      </g>
    </svg>
