<svg width="12" height="12" viewBox="0 0 12 12" fill="none" xmlns="http://www.w3.org/2000/svg">
<path d="M7.02335 5.99958L11.5965 1.4337C11.7332 1.29701 11.81 1.11162 11.81 0.918317C11.81 0.725011 11.7332 0.539621 11.5965 0.402933C11.4598 0.266244 11.2744 0.189453 11.0811 0.189453C10.8878 0.189453 10.7024 0.266244 10.5657 0.402933L5.99984 4.97607L1.43396 0.402933C1.29728 0.266244 1.11189 0.189453 0.91858 0.189453C0.725273 0.189453 0.539883 0.266244 0.403195 0.402933C0.266506 0.539621 0.189716 0.725011 0.189716 0.918317C0.189716 1.11162 0.266506 1.29701 0.403195 1.4337L4.97633 5.99958L0.403195 10.5655C0.335158 10.6329 0.281156 10.7132 0.244303 10.8017C0.20745 10.8901 0.188477 10.985 0.188477 11.0808C0.188477 11.1767 0.20745 11.2715 0.244303 11.36C0.281156 11.4485 0.335158 11.5287 0.403195 11.5962C0.470676 11.6643 0.550961 11.7183 0.639418 11.7551C0.727875 11.792 0.822753 11.8109 0.91858 11.8109C1.01441 11.8109 1.10928 11.792 1.19774 11.7551C1.2862 11.7183 1.36648 11.6643 1.43396 11.5962L5.99984 7.02309L10.5657 11.5962C10.6332 11.6643 10.7135 11.7183 10.8019 11.7551C10.8904 11.792 10.9853 11.8109 11.0811 11.8109C11.1769 11.8109 11.2718 11.792 11.3603 11.7551C11.4487 11.7183 11.529 11.6643 11.5965 11.5962C11.6645 11.5287 11.7185 11.4485 11.7554 11.36C11.7922 11.2715 11.8112 11.1767 11.8112 11.0808C11.8112 10.985 11.7922 10.8901 11.7554 10.8017C11.7185 10.7132 11.6645 10.6329 11.5965 10.5655L7.02335 5.99958Z" fill="#2E1039"/>
</svg>
